<?xml version="1.0" standalone="no"?>
<!DOCTYPE svg PUBLIC "-//W3C//DTD SVG 20010904//EN"
 "http://www.w3.org/TR/2001/REC-SVG-20010904/DTD/svg10.dtd">
<svg version="1.0" xmlns="http://www.w3.org/2000/svg"
 width="341.000000pt" height="341.000000pt" viewBox="0 0 341.000000 341.000000"
 preserveAspectRatio="xMidYMid meet">
<metadata>
Created by potrace 1.11, written by Peter Selinger 2001-2013
</metadata>
<g transform="translate(0.000000,341.000000) scale(0.100000,-0.100000)"
fill="#000000" stroke="none">
<path d="M1050 3396 c-72 -16 -112 -38 -171 -93 -124 -116 -207 -325 -225
-570 l-7 -93 42 0 c46 0 44 -3 59 91 27 181 148 310 305 326 221 23 375 -208
487 -731 l21 -99 -501 -1078 c-275 -593 -503 -1085 -506 -1093 -5 -14 18 -16
217 -16 l224 0 350 795 c192 437 352 791 356 787 4 -4 48 -196 98 -427 145
-664 182 -796 258 -949 102 -203 353 -297 539 -203 63 32 154 129 188 201 34
71 64 201 71 301 3 44 8 101 11 128 l5 47 -45 0 -44 0 -11 -66 c-19 -108 -48
-172 -105 -230 -57 -59 -97 -74 -191 -74 -118 0 -229 79 -302 217 -80 150
-114 274 -293 1073 -270 1207 -343 1454 -477 1618 -93 114 -228 167 -353 138z"/>
</g>
</svg>
